<svg width="25" height="25" viewBox="0 0 25 25" fill="none" xmlns="http://www.w3.org/2000/svg">
<ellipse cx="12.5" cy="12.5001" rx="12.15" ry="12.15" fill="white"/>
<path d="M12.5 5.79639C11.9175 5.79639 11.4453 6.26857 11.4453 6.85107V13.6429C11.4453 14.2254 11.9175 14.6976 12.5 14.6976C13.0825 14.6976 13.5547 14.2254 13.5547 13.6429V6.85107C13.5547 6.26857 13.0825 5.79639 12.5 5.79639Z" fill="#0555FF"/>
<path d="M12.5 18.8364C13.2864 18.8364 13.9238 18.199 13.9238 17.4126C13.9238 16.6262 13.2864 15.9888 12.5 15.9888C11.7136 15.9888 11.0762 16.6262 11.0762 17.4126C11.0762 18.199 11.7136 18.8364 12.5 18.8364Z" fill="#0555FF"/>
</svg>
