<svg width="100" height="29" viewBox="0 0 100 29" fill="none" xmlns="http://www.w3.org/2000/svg">
<g clip-path="url(#clip0_0_58)">
<path d="M49.2703 22.4133H49.88L53.02 26.7425V22.4133H53.5589V27.6639H53.0477L49.8074 23.206V27.6639H49.2694V22.4133H49.2703ZM54.8958 22.4133H58.3691V22.9452H55.4571V24.6811H58.2983V25.2061H55.4571V27.1561H58.3976V27.6656H54.8958V22.4133ZM61.1836 22.9444H59.2146V22.4133H63.7148V22.9452H61.7449V27.6656H61.1853V22.9444H61.1836ZM64.3953 22.4133H64.9705L66.3522 26.7571L67.7625 22.4133H68.2443L69.6477 26.7571L71.0363 22.4133H71.5752L69.8886 27.7002H69.4059L67.9887 23.3278L66.5785 27.7002H66.0888L64.3962 22.4133H64.3953ZM72.077 25.0369C72.077 23.1663 73.033 22.3286 74.7127 22.3286C76.3993 22.3286 77.3639 23.1646 77.3639 25.0369C77.3639 26.9143 76.3993 27.7511 74.7127 27.7511C73.033 27.7511 72.077 26.9152 72.077 25.0369ZM76.8043 25.0438C76.8043 23.6257 76.1454 22.8606 74.7144 22.8606C73.2895 22.8606 72.6375 23.6257 72.6375 25.0438C72.6375 26.4678 73.2895 27.2347 74.7135 27.2347C76.1437 27.2347 76.8034 26.4678 76.8034 25.0438H76.8043ZM80.6257 25.5265H79.0522V27.6682H78.5064V22.4167H80.7751C81.9928 22.4167 82.5472 22.9055 82.5472 23.947C82.5472 24.8538 82.1154 25.3857 81.2 25.5058L82.4686 27.6674H81.8727L80.6257 25.5256V25.5265ZM80.7812 25.017C81.5264 25.017 81.9867 24.7899 81.9867 23.9608C81.9867 23.1456 81.5403 22.9331 80.7604 22.9331H79.054V25.0161H80.7812V25.017ZM85.3297 24.8788L84.2813 26.0274V27.6639H83.7355V22.4133H84.2813V25.3115L86.9386 22.4133H87.5837L85.7002 24.4755L87.8393 27.6656H87.208L85.3297 24.8788ZM88.3065 27.1328L88.5898 26.7079C89.1498 27.0657 89.8028 27.2507 90.4672 27.2399C91.5511 27.2399 92.0338 26.935 92.0338 26.2122C92.0338 25.4678 91.4103 25.3624 90.4672 25.1932C89.3325 24.9937 88.5673 24.802 88.5673 23.7389C88.5673 22.725 89.2193 22.3286 90.4672 22.3286C91.2885 22.3286 91.8775 22.5134 92.2963 22.7976L91.9993 23.2501C91.6236 23.0014 91.064 22.8381 90.4681 22.8381C89.5259 22.8381 89.1218 23.1007 89.1218 23.7242C89.1218 24.3892 89.6667 24.5187 90.602 24.688C91.7505 24.8944 92.5796 25.0645 92.5796 26.1906C92.5796 27.233 91.9138 27.7365 90.4819 27.7365C89.6874 27.7365 88.9724 27.5724 88.3065 27.1337V27.1328ZM98.0703 0.70851C90.6875 0.70851 90.374 4.01608 90.374 8.68295V20.1394H92.115V8.68209C92.115 5.16552 91.9751 2.34416 98.0703 2.34416C98.7241 2.34416 99.3027 2.3787 99.8234 2.43916V0.781052C99.2404 0.730691 98.6555 0.706486 98.0703 0.70851ZM11.9561 12.6857V1.08936H13.7325V12.7203C13.7325 16.0641 13.6979 18.8846 19.826 18.8846C25.9195 18.8846 25.7814 16.0641 25.7814 12.5458V1.09022H27.5224V12.5467C27.5224 17.2135 27.2089 20.522 19.826 20.522C12.4086 20.5203 11.9561 17.2135 11.9561 12.6857ZM46.0379 8.54305V20.1394H44.2614V8.5085C44.2614 5.16553 44.296 2.34416 38.167 2.34416C32.0718 2.34416 32.2134 5.16553 32.2134 8.68295V20.1394H30.4724V8.68209C30.4724 4.01608 30.7859 0.70851 38.1688 0.70851C45.5845 0.70851 46.0379 4.01608 46.0379 8.54305ZM49.2694 1.12649H50.9742V20.1403H49.2694V1.12649ZM54.1643 1.12649H63.0645C67.4783 1.12649 69.481 3.32002 69.481 7.22088C69.481 11.1468 67.5051 13.5338 63.0403 13.5338H55.869V20.1403H54.1643V1.12649ZM63.0913 11.8238C66.1657 11.8238 67.6942 10.3246 67.6942 7.29688C67.6942 4.26998 66.0448 2.83295 63.0135 2.83295H55.8673V11.823H63.0913V11.8238ZM71.4664 10.5621C71.4664 4.95653 73.0684 0.637695 80.2431 0.637695C87.6597 0.637695 87.9032 5.61632 87.8687 10.8756H73.172C73.2066 15.5079 74.356 18.9563 80.3804 18.9563C83.5844 18.9563 85.0473 18.084 86.6139 16.9363L87.588 18.2257C85.8479 19.5142 83.7934 20.5246 80.3796 20.5246C72.8585 20.522 71.4664 16.1686 71.4664 10.5621ZM73.2066 9.27365H86.1605C85.9878 5.47815 85.7425 2.2388 80.2051 2.2388C74.8785 2.24053 73.4173 5.13012 73.2066 9.27365ZM1.26475 24.2639C8.64677 24.2639 8.96112 20.9564 8.96112 16.2886V1.08936H7.21924V16.2886C7.21924 19.8061 7.35915 22.6274 1.26475 22.6274C1.03418 22.6274 0.815685 22.6214 0.603241 22.6136V24.2544C0.815685 24.2605 1.03677 24.2639 1.26389 24.2639H1.26475ZM95.926 20.2223C95.6071 20.2221 95.3013 20.0954 95.0756 19.8701C94.85 19.6447 94.7229 19.3391 94.7222 19.0202C94.7222 18.7825 94.7926 18.5501 94.9246 18.3525C95.0567 18.1548 95.2443 18.0008 95.4639 17.9097C95.6834 17.8187 95.925 17.7948 96.1582 17.841C96.3913 17.8873 96.6055 18.0016 96.7737 18.1695C96.9419 18.3375 97.0565 18.5515 97.1031 18.7846C97.1497 19.0177 97.1261 19.2593 97.0354 19.479C96.9447 19.6987 96.7909 19.8866 96.5934 20.0189C96.396 20.1512 96.1637 20.222 95.926 20.2223ZM95.926 17.9735C95.3483 17.9735 94.8785 18.4433 94.8785 19.0202C94.8785 19.5962 95.3483 20.0677 95.926 20.0677C96.1947 20.0544 96.448 19.9382 96.6335 19.7433C96.8189 19.5484 96.9223 19.2897 96.9223 19.0206C96.9223 18.7516 96.8189 18.4928 96.6335 18.2979C96.448 18.103 96.1947 17.9869 95.926 17.9735Z" fill="#050038"/>
<path d="M96.0039 19.1808H95.6179V19.7111H95.4348V18.3311H96.0488C96.3986 18.3311 96.5341 18.4753 96.5341 18.7473C96.5341 18.9692 96.4391 19.1247 96.2008 19.1687L96.5134 19.7111H96.3131L96.0039 19.1808ZM96.0462 19.0081C96.2353 19.0081 96.3433 18.9546 96.3433 18.7525C96.3433 18.5539 96.2388 18.5064 96.041 18.5064H95.6179V19.0081H96.0462Z" fill="#050038"/>
</g>
<defs>
<clipPath id="clip0_0_58">
<rect width="99.3135" height="27.635" fill="white" transform="translate(0.604248 0.637695)"/>
</clipPath>
</defs>
</svg>
