<svg width="16" height="16" viewBox="0 0 16 16" fill="none" xmlns="http://www.w3.org/2000/svg">
<path d="M8 16C5.86316 16 3.85413 15.1678 2.34314 13.6569C0.832153 12.1459 0 10.1368 0 8C0 5.86316 0.832153 3.85413 2.34314 2.34314C3.85413 0.832153 5.86316 0 8 0C10.1368 0 12.1459 0.832153 13.6569 2.34314C15.1678 3.85413 16 5.86316 16 8C16 10.1368 15.1678 12.1459 13.6569 13.6569C12.1459 15.1678 10.1368 16 8 16ZM8 1.25C4.27808 1.25 1.25 4.27808 1.25 8C1.25 11.7219 4.27808 14.75 8 14.75C11.7219 14.75 14.75 11.7219 14.75 8C14.75 4.27808 11.7219 1.25 8 1.25ZM11.2925 11.2925L10.4086 10.4086C9.08044 11.7367 6.91956 11.7367 5.59143 10.4086C4.26331 9.08044 4.26331 6.91956 5.59143 5.59143C6.91956 4.26331 9.08044 4.26331 10.4086 5.59143L11.2925 4.70752C9.47693 2.89209 6.52295 2.89209 4.70752 4.70752C2.89209 6.52307 2.89209 9.47705 4.70752 11.2925C5.61523 12.2002 6.80762 12.6541 8 12.6541C9.19226 12.6541 10.3848 12.2002 11.2925 11.2925Z" fill="white"/>
</svg>
