<svg width="94" height="15" viewBox="0 0 94 15" fill="none" xmlns="http://www.w3.org/2000/svg">
<path d="M7.62891 8.625L8.01172 6.10938H5.57812V4.46875C5.57812 3.75781 5.90625 3.10156 7 3.10156H8.12109V0.941406C8.12109 0.941406 7.10938 0.75 6.15234 0.75C4.15625 0.75 2.84375 1.98047 2.84375 4.16797V6.10938H0.601562V8.625H2.84375V14.75H5.57812V8.625H7.62891ZM43.0938 0.96875C39.3477 0.96875 36.3125 4.03125 36.3125 7.75C36.3125 11.4961 39.3477 14.5312 43.0938 14.5312C46.8125 14.5312 49.875 11.4961 49.875 7.75C49.875 4.03125 46.8125 0.96875 43.0938 0.96875ZM47.5508 4.11328C48.3711 5.09766 48.8633 6.35547 48.8633 7.72266C48.6719 7.66797 46.7578 7.28516 44.8438 7.53125C44.6797 7.14844 44.543 6.82031 44.3242 6.38281C46.4844 5.50781 47.4414 4.27734 47.5508 4.11328ZM46.9219 3.42969C46.8125 3.59375 45.9375 4.76953 43.8867 5.53516C42.9297 3.78516 41.8906 2.36328 41.7266 2.14453C43.5586 1.70703 45.5 2.17188 46.9219 3.42969ZM40.6055 2.52734C40.7695 2.74609 41.8086 4.16797 42.7656 5.89062C40.0586 6.60156 37.6797 6.60156 37.4062 6.57422C37.7891 4.79688 38.9922 3.29297 40.6055 2.52734ZM37.2969 7.77734C37.2969 7.72266 37.2969 7.66797 37.2969 7.58594C37.543 7.61328 40.3594 7.64062 43.2305 6.76562C43.4219 7.09375 43.5586 7.42188 43.7227 7.75C41.6172 8.35156 39.7031 10.0469 38.7734 11.6328C37.8438 10.6211 37.2969 9.25391 37.2969 7.77734ZM39.5117 12.3438C40.1406 11.1133 41.7812 9.5 44.1055 8.70703C44.9258 10.8125 45.2539 12.5898 45.3359 13.1094C43.4766 13.9023 41.2344 13.6836 39.5117 12.3438ZM46.3203 12.5625C46.2656 12.2344 45.9375 10.5391 45.1992 8.43359C47.0039 8.16016 48.5898 8.625 48.8086 8.67969C48.5352 10.293 47.6055 11.6875 46.3203 12.5625ZM83.7812 7.25781C84.6289 6.82031 85.0938 6.19141 85.0938 5.23438C85.0938 3.29297 83.6445 2.82812 82.0039 2.82812H77.4375V12.5078H82.1133C83.8906 12.5078 85.5312 11.6602 85.5312 9.69141C85.5312 8.48828 84.957 7.58594 83.7812 7.25781ZM79.543 4.46875H81.5664C82.332 4.46875 83.0156 4.6875 83.0156 5.58984C83.0156 6.41016 82.4688 6.73828 81.7031 6.73828H79.543V4.46875ZM81.8398 10.8672H79.543V8.1875H81.8672C82.8242 8.1875 83.3984 8.59766 83.3984 9.58203C83.3984 10.5664 82.6875 10.8672 81.8398 10.8672ZM91.6289 4.27734V3.32031H87.7188V4.27734H91.6289ZM93.1875 9.11719C93.1875 7.03906 91.957 5.28906 89.7695 5.28906C87.6094 5.28906 86.1602 6.90234 86.1602 9.00781C86.1602 11.1953 87.5547 12.6992 89.7695 12.6992C91.4375 12.6992 92.5312 11.9336 93.0508 10.3477H91.3555C91.1641 10.9492 90.3984 11.25 89.8242 11.25C88.7031 11.25 88.1016 10.5938 88.1016 9.47266H93.1602C93.1602 9.36328 93.1875 9.22656 93.1875 9.11719ZM88.1016 8.24219C88.1562 7.33984 88.7852 6.76562 89.6875 6.76562C90.6719 6.76562 91.1641 7.3125 91.2461 8.24219H88.1016Z" fill="#C4C4C4"/>
</svg>
